<svg xmlns="http://www.w3.org/2000/svg" width="26" height="17" viewBox="0 0 26 17"><g><g opacity=".2"><path fill="#062033" d="M17.03 2.197h6.377v1.629H17.03zm8.796 9.647h-8.303c.089 2.015 1.068 2.757 2.826 2.757 1.27 0 2.295-.406 2.495-1.123h2.532c-.89 2.73-2.532 3.516-5.137 3.516-3.629 0-5.877-2.506-5.877-6.084 0-3.47 2.383-6.11 5.877-6.11 3.917 0 5.81 3.487 5.587 7.044zM17.523 9.48h5.143c-.29-1.61-.981-2.283-2.517-2.283-2.003 0-2.582 1.39-2.626 2.283zm-3.99 2.57c0 3.244-2.74 4.633-5.612 4.633H.22V.605h7.482c3.026 0 5.074 1.085 5.074 4.06 0 1.569-.779 2.663-2.16 3.336 1.938.56 2.917 2.057 2.917 4.048zm-6.846-8.74H3.415v3.736h3.539c1.224 0 2.137-.559 2.137-1.9 0-1.521-1.158-1.836-2.404-1.836zm.533 6.13H3.415v4.386h3.739c1.38 0 2.581-.447 2.581-2.103 0-1.633-1.022-2.283-2.515-2.283z"/></g></g></svg>