<svg xmlns="http://www.w3.org/2000/svg" width="26" height="26" viewBox="0 0 26 26"><g><g opacity=".2"><path fill="#062033" d="M25.82 12.999a12.734 12.734 0 0 1-2.187 7.16 12.942 12.942 0 0 1-1.563 1.893 12.795 12.795 0 0 1-4.068 2.742 12.76 12.76 0 0 1-4.983 1.007 12.783 12.783 0 0 1-10.614-5.643 12.765 12.765 0 0 1-2.187-7.16A12.781 12.781 0 0 1 5.861 2.386 12.721 12.721 0 0 1 10.44.46a12.848 12.848 0 0 1 7.56.746A12.777 12.777 0 0 1 22.07 3.95a12.893 12.893 0 0 1 1.562 1.893A12.734 12.734 0 0 1 25.82 13zM21.46 6.056c-.02.03-1.773 2.565-6.09 4.327a33.467 33.467 0 0 1 .962 2.15c3.756-.473 7.456.323 7.614.358a10.883 10.883 0 0 0-2.486-6.835zM13.02 2.068c-.888 0-1.75.108-2.576.308a55.45 55.45 0 0 1 4.086 6.378c4.126-1.546 5.683-3.916 5.71-3.959a10.888 10.888 0 0 0-7.22-2.727zm-2.653.326l.033-.007.002-.002-.035.01zM2.32 10.746c.289.005 4.844.06 10.093-1.334a65.855 65.855 0 0 0-4.06-6.3 10.948 10.948 0 0 0-6.033 7.634zm2.567 9.559c0-.002-.004-.005-.004-.005s2.992-5.309 8.891-7.215c.143-.047.286-.09.431-.13a35.87 35.87 0 0 0-.887-1.859C7.691 12.78 2.29 12.658 2.096 12.654c-.004.114-.009.229-.009.345 0 2.808 1.06 5.37 2.8 7.306zm12.399 2.761c-.162-.956-.797-4.303-2.336-8.3a.899.899 0 0 0-.072.023C8.396 17.047 6.3 21.618 6.3 21.618s-.1-.075-.245-.191a10.887 10.887 0 0 0 6.964 2.505c1.514 0 2.956-.309 4.268-.866zm6.525-8.33c-.225-.074-3.283-1.042-6.813-.478 1.435 3.94 2.017 7.148 2.128 7.809a10.937 10.937 0 0 0 4.685-7.332z"/></g></g></svg>