<svg xmlns="http://www.w3.org/2000/svg" width="23" height="16" viewBox="0 0 23 16"><g><g><path fill="#0eb493" d="M2.516 1.465c-.2 0-.47-.01-.69.032L11.5 9.298l9.713-7.833h-.01zm-1.079 12c0 .402.682 1.091 1.079 1.091h18.687c.397 0 .36-.69.36-1.09V3.045L11.97 10.81a.711.711 0 0 1-.94 0L1.436 3.046zM21.203.011c.984 0 1.569.418 1.742 1.244a.737.737 0 0 1 .049.372c.004.066.006.133.006.202v11.636c0 1.206-.606 2.546-1.797 2.546H2.516C1.325 16.01 0 14.67 0 13.465V1.83c0-.06.003-.12.01-.176A.732.732 0 0 1 .278.959C.728.33 1.657.011 2.516.011z"/></g></g></svg>