<svg xmlns="http://www.w3.org/2000/svg" width="23" height="26" viewBox="0 0 23 26"><g><g opacity=".2"><path fill="#062033" d="M22.122 25.536a.573.573 0 0 1-.482.265h-8.85V21l3.929-2.4a.793.793 0 0 0 .785-.8c0-.442-.351-.8-.785-.8l-3.929 2.4v-2.8l2.357-1.2a.793.793 0 0 0 .786-.8c0-.442-.352-.8-.786-.8L12.79 15v-1.2c0-.442-.352-.8-.786-.8h-1.57a.793.793 0 0 0-.787.8v5.067L6.505 17.8a.793.793 0 0 0-.786.8c0 .442.351.8.786.8l3.142 1.067V25.8H.798a.575.575 0 0 1-.482-.265.6.6 0 0 1-.046-.559L10.708.551a.574.574 0 0 1 .528-.352c.23 0 .438.138.529.353l10.403 24.427a.601.601 0 0 1-.046.557z"/></g></g></svg>