<svg xmlns="http://www.w3.org/2000/svg" width="26" height="23" viewBox="0 0 26 23"><g><g opacity=".2"><path fill="#062033" d="M21.819 6.322v3.905h-1.6V6.322h-4V4.726h4V.822h1.6v3.904h4v1.596zM10.755 2.37c1.42.786 2.252 2.062 2.252 3.73 0 1.402-.866 2.506-1.982 3.363-1.09.836-1.296 1.187-1.296 1.897 0 .606 1.167 1.639 1.777 2.063 1.784 1.239 2.311 2.389 2.311 4.309 0 2.395-2.31 5.07-6.585 5.07-3.75 0-7.013-1.793-7.013-4.188 0-2.432 2.986-4.78 6.735-4.78.408 0 .783-.016 1.17-.016-.513-.49-.919-1.1-.919-1.841 0-.44.143-.881.343-1.257-.204.015-.412-.018-.626-.018-3.08 0-5.143-2.226-5.143-4.893 0-2.609 2.85-5.01 5.876-5.01h6.752l-1.51 1.571zM7.668 14.454c-2.591-.027-4.913 1.553-4.913 3.45 0 1.934 1.872 3.35 4.463 3.35 3.643 0 4.913-1.317 4.913-3.252 0-.233-.03-.462-.083-.684-.285-1.095-1.293-1.638-2.7-2.598a5.737 5.737 0 0 0-1.68-.266zM10.58 6.13c-.301-2.243-2.03-4.044-3.77-4.094-1.738-.05-2.905 1.665-2.604 3.91.3 2.243 1.953 4.103 3.693 4.154 1.738.051 2.98-1.726 2.68-3.97z"/></g></g></svg>