<svg xmlns="http://www.w3.org/2000/svg" width="26" height="22" viewBox="0 0 26 22"><g><g opacity=".2"><path fill="#062033" d="M17.631.601c2.035-.036 3.117.705 4.152 1.648.878-.075 2.018-.566 2.69-.907l.654-.357c-.384 1.037-.904 1.849-1.704 2.465-.178.137-.354.321-.577.408v.013c1.14-.011 2.08-.526 2.973-.805v.013c-.47.746-1.104 1.502-1.781 2.044l-.82.652c.015 1.206-.018 2.358-.244 3.372-1.311 5.895-4.787 9.897-10.288 11.612-1.976.616-5.168.868-7.432.306-1.122-.278-2.136-.593-3.088-1.009A12.303 12.303 0 0 1 .68 19.29l-.461-.281c.51.015 1.107.156 1.678.064.517-.084 1.023-.062 1.5-.166 1.187-.261 2.242-.606 3.151-1.137.44-.258 1.11-.56 1.423-.933-.59.01-1.125-.126-1.564-.28-1.699-.6-2.688-1.703-3.331-3.36.515.056 1.998.19 2.345-.103-.648-.035-1.272-.41-1.717-.69-1.367-.855-2.481-2.29-2.473-4.496l.538.255c.343.145.692.223 1.102.307.173.036.519.138.717.064h-.025c-.265-.308-.695-.513-.961-.843C1.725 6.6.903 4.924 1.423 2.926c.132-.507.341-.954.564-1.367l.026.013c.101.214.33.37.474.55.447.554 1 1.053 1.563 1.494 1.918 1.5 3.645 2.421 6.419 3.104.704.173 1.517.305 2.358.306-.237-.687-.16-1.8.025-2.465.468-1.673 1.483-2.88 2.973-3.526A6.357 6.357 0 0 1 16.99.678L17.63.6z"/></g></g></svg>